<svg  height="40" fill='white' viewBox="0 96 960 960" width="40"><path d="M480.58 908.638q-135.015 0-232.834-96.261-97.819-96.261-97.819-229.956v-32.9l-67.696 67.696-49.188-49.754L194 405.941l161.333 161.522-49.565 49.754-67.695-67.696v31.581q0 98.449 71.297 168.731 71.297 70.283 171.21 70.283 29.319 0 56.21-5.993 26.891-5.993 50.978-17.978l63.175 62.609q-39.87 25.565-82.624 37.725-42.754 12.159-87.739 12.159Zm286.652-160.681L605.71 586.624l50.42-50.421 67.029 67.029v-28.913q0-98.073-71.579-168.543-71.58-70.471-171.116-70.471-29.696 0-56.587 6.326-26.892 6.326-50.979 16.978l-62.609-63.174q39.87-25.189 82.341-36.921t87.834-11.732q134.638 0 232.739 96.45Q811.305 439.681 811.305 573v31.566l67.13-67.696 49.754 49.754-160.957 161.333Z"/></svg>